<svg data-v-0dd9719b="" version="1.0" xmlns="http://www.w3.org/2000/svg" xmlns:xlink="http://www.w3.org/1999/xlink" width="100%" height="100%" viewBox="0 0 340.000000 250.000000" preserveAspectRatio="xMidYMid meet" color-interpolation-filters="sRGB" style="margin: auto;"> <rect data-v-0dd9719b="" x="0" y="0" width="100%" height="100%" fill="#fff" fill-opacity="1" class="background"></rect> <rect data-v-0dd9719b="" x="0" y="0" width="100%" height="100%" fill="url(#watermark)" fill-opacity="1" class="watermarklayer"></rect> <g data-v-0dd9719b="" fill="#333" class="icon-text-wrapper icon-svg-group iconsvg" transform="translate(48.56999969482422,91.03414535522461)"><g class="iconsvg-imagesvg" transform="translate(0,0)"><g><rect fill="#333" fill-opacity="0" stroke-width="2" x="0" y="0" width="60" height="67.93170599157646" class="image-rect"></rect> <svg x="0" y="0" width="60" height="67.93170599157646" filtersec="colorsb6588974769" class="image-svg-svg primary" style="overflow: visible;"><svg xmlns="http://www.w3.org/2000/svg" viewBox="-0.021244613453745842 0.0102689228951931 177.68438720703125 201.173095703125"><path d="M135.34 100.54c0 7.56-.09 15.13 0 22.7a4.72 4.72 0 0 1-2.83 4.86q-20.79 11.6-41.4 23.52a4.13 4.13 0 0 1-4.76-.07q-20.75-11.93-41.61-23.64a4.07 4.07 0 0 1-2.51-4c.1-15.72.08-31.44 0-47.16a3 3 0 0 1 1.69-3q21.6-12.19 43.13-24.49a3.13 3.13 0 0 1 3.48.06c12.9 7.4 25.67 15.06 38.82 22 4.82 2.53 6.41 5.36 6 10.57-.5 6.2-.12 12.47-.12 18.71z" fill="#fddd17"></path><path d="M142.29 100.67V33.06c0-3 0-3.05 2.64-1.57q15.49 8.79 31 17.56a3 3 0 0 1 1.72 3q-.06 48.52 0 97.05a3.32 3.32 0 0 1-2 3.27q-15.51 8.75-31 17.57c-2.33 1.33-2.35 1.32-2.35-1.36zM35.37 100.84v67.61c0 2.77 0 2.78-2.5 1.37-10.25-5.82-20.48-11.69-30.76-17.44A3.69 3.69 0 0 1 0 148.64q.08-48 0-96.06c0-1.61.24-2.74 1.84-3.64 10.46-5.82 20.84-11.76 31.25-17.65 2.25-1.29 2.28-1.29 2.28 1.44zM42.32 46V28.05a2.94 2.94 0 0 1 1.61-3Q65.49 12.88 87 .58a3.16 3.16 0 0 1 3.62 0q21.51 12.3 43.1 24.48a3 3 0 0 1 1.64 3v35.91c0 2.73-.06 2.75-2.57 1.33-13.86-7.87-27.73-15.72-41.55-23.67a4.17 4.17 0 0 0-4.77 0c-13.81 7.95-27.69 15.8-41.55 23.67-2.58 1.47-2.6 1.45-2.6-1.51V46.08zM42.31 155c0-6 .06-12 0-18 0-2.06.3-2.48 2.26-1.35 14 8 28 15.93 42 23.95a3.94 3.94 0 0 0 4.53.06c14-8 28-16 42-23.92 2.29-1.3 2.29-1.31 2.3 1.4v35.67a3.49 3.49 0 0 1-2 3.54q-21.39 12-42.68 24.23a3.13 3.13 0 0 1-3.61.06Q65.66 188.4 44.18 176.3a3.28 3.28 0 0 1-1.91-3.3c.1-6 .04-12 .04-18z" fill="#bf202f"></path></svg></svg> <!----></g></g> <g transform="translate(67,5.989604949951172)"><g data-gra="path-name" fill-rule="" class="tp-name iconsvg-namesvg" transform="translate(0,0)"><g transform="scale(1)"><g><path d="M7.42-11.29L7.42-3.33 12.64-3.33 12.64-9.9C12.64-10.3 12.91-10.57 13.32-10.57L35.91-10.57C36.31-10.57 36.59-10.3 36.59-9.9L36.59-3.33 41.8-3.33 41.8-11.29C41.8-13.63 40.59-14.89 38.25-14.89L10.98-14.89C8.64-14.89 7.42-13.63 7.42-11.29ZM27.36-21.11L27.36-23.09 38.12-23.09C40.41-23.09 41.67-24.34 41.67-26.68L41.67-30.29C41.67-32.63 40.41-33.88 38.12-33.88L27.36-33.88 27.36-36 22.05-36 22.05-33.88 11.65-33.88C9.36-33.88 8.1-32.63 8.1-30.29L8.1-26.68C8.1-24.34 9.36-23.09 11.65-23.09L22.05-23.09 22.05-21.11 4.05-21.11 4.5-16.88 44.77-16.88 44.77-21.11ZM27.36-27.22L27.36-29.74 36.18-29.74C36.45-29.74 36.63-29.56 36.63-29.29L36.63-27.68C36.63-27.4 36.45-27.22 36.18-27.22ZM27.22-6.08C27.31-6.57 27.36-7.11 27.36-7.65L27.36-9.81 22.05-9.81 22.05-7.69C22.05-4.37 17.5-1.4 4.05 0L5.17 4.91C15.75 3.65 21.96 1.3 24.97-1.84 28.89 1.71 34.65 3.87 43.88 5L44.86 0C37.8-0.4 32.17-1.89 27.22-6.08ZM22.05-27.22L13.59-27.22C13.32-27.22 13.14-27.4 13.14-27.68L13.14-29.29C13.14-29.56 13.32-29.74 13.59-29.74L22.05-29.74ZM52.47-11.61L55.53-25.83 51.03-25.83 47.88-11.61ZM61.11-22.95L61.11-36 55.62-36 55.62-22.99C55.62-9.54 54.23-4.37 50.04 4.5L55.98 4.5C59.49-2.7 61.11-9.36 61.11-22.95ZM82.44-11.61L82.44 4.5 87.93 4.5 87.93-36 82.44-36 82.44-12.38 79.34-25.83 74.92-25.83 78.12-11.61ZM68.98-11.61L68.98 3.65 74.3 3.65 74.3-35.1 68.98-35.1 68.98-14.08 66.42-25.83 61.97-25.83 65.03-11.61ZM130.41-8.69L130.41-14.31C130.41-16.34 129.28-17.46 127.26-17.46L112.86-17.46C110.84-17.46 109.71-16.34 109.71-14.31L109.71-8.69C109.71-6.66 110.84-5.54 112.86-5.54L127.26-5.54C129.28-5.54 130.41-6.66 130.41-8.69ZM114.75-10.44L114.75-12.55C114.75-12.96 114.97-13.23 115.38-13.23L124.74-13.23C125.14-13.23 125.41-12.96 125.41-12.55L125.41-10.44C125.41-10.04 125.14-9.76 124.74-9.76L115.38-9.76C114.97-9.76 114.75-10.04 114.75-10.44ZM130.14-22.95C131.85-24.66 133.6-27.04 134.73-30.6L130.63-30.6C130-28.98 129.15-27.4 127.84-26.05 127.48-26.73 127.17-27.4 126.9-28.13 128.61-29.65 130.5-31.95 131.53-35.23L127.17-35.23C126.77-34.2 126.27-33.16 125.59-32.22 125.28-33.39 125.01-34.65 124.74-35.95L119.92-35.95C120.83-31.27 121.95-27.36 123.7-24.07L117.05-24.07C117.86-25.65 118.53-27.36 119.03-29.25 119.38-30.15 119.38-31 119.38-31.72 119.38-33.7 118.58-34.65 116.55-34.65L108.18-34.65 108.63-30.33 114.57-30.33C114.25-29.11 113.89-28.04 113.44-27.09L108.31-29.29 108.31-24.84 111.19-23.63C109.8-22.23 108-21.24 106.25-20.2L107.86-15.21C110.43-16.74 113.13-18.9 114.88-20.84L114.97-19.75 125.41-19.75 125.41-21.33C127.39-18.68 130-16.52 133.56-14.76L134.59-19.98C132.75-20.79 131.31-21.73 130.14-22.95ZM127.57-0.9L128.61-4.41 123.84-4.41 122.76-0.9 117.72-0.9 116.64-4.41 111.69-4.41 112.77-0.9 106.65-0.9 107.1 3.6 133.29 3.6 133.29-0.9ZM104.53-13.63C105.44-13.37 106.25-13.05 107.01-12.64L107.01-17.37C106.29-17.55 105.44-17.73 104.53-17.95L104.53-24.25 107.14-24.25 107.14-28.84 104.53-28.84 104.53-36 99.5-36 99.5-28.84 93.92-28.84 94.41-24.25 99.5-24.25 99.5-18.99C99.14-19.04 98.82-19.13 98.5-19.17L98.5-19.53 98.5-22.45 94.81-22.45 94.81-19.53C94.81-13.54 94.14-8.1 92.34-2.92L96.12-1.8C97.61-5.8 98.19-10.13 98.41-14.71 98.78-14.71 99.14-14.67 99.5-14.63L99.5 4.63 104.53 4.63ZM168.25-13.41L169.92-8.69 174.15-8.69 172.44-13.41ZM149.81-28.08L149.81-32.85 140.31-35.91 140.31-31.14ZM170.64-26.5L172.22-28.3C174.01-30.38 172.98-33.21 170.24-33.21L160.29-33.21C160.88-34.29 161.41-35.28 161.82-36L156.06-36C155.52-35.05 154.49-33.21 153.94-32.31 153.09-30.64 153.94-29.29 155.97-29.29L167.26-29.29 164.88-26.5 154.84-26.5C153-26.5 151.88-25.38 151.88-23.54L151.88-17.23C151.88-15.39 153-14.26 154.84-14.26L160.25-14.26C158.67-11.43 155.79-9.18 150.53-7.33L151.74-2.48C157.14-4.54 160.74-7.02 163.08-10.04L163.08-8.19C163.08-5.67 164.34-4 167-3.55 169.29-3.15 173.43-3.15 175.28-3.55 177.7-4.09 179.28-5.49 179.28-8.01L179.28-11.29 174.96-12.01 174.96-9.31C174.96-8.19 174.42-7.83 173.34-7.6 172.44-7.42 170.19-7.42 169.2-7.6 168.07-7.83 167.76-8.32 167.76-9.49L167.76-14.26 173.84-14.26C175.68-14.26 176.81-15.39 176.81-17.23L176.81-23.54C176.81-25.38 175.68-26.5 173.84-26.5ZM166.81-22.36L171.09-22.36C171.5-22.36 171.76-22.09 171.76-21.69L171.76-19.26C171.76-18.86 171.5-18.59 171.09-18.59L166.5-18.59C166.68-19.8 166.77-21.06 166.81-22.36ZM161.95-22.36C161.91-21.02 161.82-19.75 161.64-18.59L157.5-18.59C157.09-18.59 156.82-18.86 156.82-19.26L156.82-21.69C156.82-22.09 157.09-22.36 157.5-22.36ZM148.68-8.64L148.68-21.2C148.68-23.49 147.47-24.7 145.13-24.7L139-24.7 139.46-20.2 142.78-20.2C143.24-20.2 143.55-19.89 143.55-19.44L143.55-8.41C143.5-5.13 141.39-1.75 138.24 0.14L139.77 4.72C143.37 2.75 145.75 0.18 146.52-1.98 148.14 1.57 151.74 3.73 157.54 3.73L178.78 3.73 179.91-0.94 157.63-0.94C152.73-0.94 149.18-2.61 148.68-8.64Z" transform="translate(-4.050000190734863, 36)"></path></g> <!----> <!----> <!----> <!----> <!----> <!----> <!----></g></g> <g data-gra="path-slogan" fill-rule="" class="tp-slogan iconsvg-slogansvg" fill="#333" transform="translate(5,47)"><rect x="0" height="1" y="3.9750003814697266" width="18.289447784423828"></rect> <rect height="1" y="3.9750003814697266" width="18.289447784423828" x="147.57055282592773"></rect> <g transform="translate(21.289447784423828,0)"><g transform="scale(1)"><path d="M7.31-3.61L4.69-3.61L4.69-4.59L8.44-4.59L8.44 0L7.69 0L7.41-1.08Q6.42 0.09 4.59 0.14L4.59 0.14Q2.86 0.14 1.92-0.75L1.92-0.75Q0.52-2.06 0.56-4.36L0.56-4.36Q0.89-8.63 4.64-8.81L4.64-8.81Q7.83-8.63 8.30-6L8.30-6L7.17-6Q6.70-7.78 4.59-7.83L4.59-7.83Q1.92-7.64 1.78-4.31L1.78-4.31Q1.78-0.75 4.64-0.75L4.64-0.75Q5.67-0.75 6.42-1.31L6.42-1.31Q7.36-2.06 7.31-3.61L7.31-3.61ZM15.89-3.19L15.89-8.58L17.06-8.58L17.06-3.05Q16.92 0.05 13.55 0.14L13.55 0.14Q10.41 0.05 10.27-2.86L10.27-2.86L10.27-8.58L11.44-8.58L11.44-3.19Q11.48-0.84 13.59-0.80L13.59-0.80Q15.89-0.84 15.89-3.19L15.89-3.19ZM19.03-8.58L20.20-8.58L20.20 0L19.03 0L19.03-8.58ZM23.02-1.03L28.31-1.03L28.31 0L21.56 0L21.56-0.94L26.81-7.59L21.94-7.59L21.94-8.58L28.31-8.58L28.31-7.59L23.02-1.03ZM30.61-5.06L35.11-5.06L35.11-8.58L36.28-8.58L36.28 0L35.11 0L35.11-3.98L30.61-3.98L30.61 0L29.44 0L29.44-8.58L30.61-8.58L30.61-5.06ZM44.86-4.27L44.86-4.27Q44.67-7.64 41.86-7.83L41.86-7.83Q39-7.69 38.86-4.27L38.86-4.27Q39-0.94 41.86-0.80L41.86-0.80Q44.67-0.98 44.86-4.27ZM46.03-4.27L46.03-4.27Q45.75 0 41.86 0.14L41.86 0.14Q37.92 0 37.64-4.27L37.64-4.27Q37.88-8.72 41.86-8.81L41.86-8.81Q45.75-8.67 46.03-4.27ZM53.06-3.19L53.06-8.58L54.23-8.58L54.23-3.05Q54.09 0.05 50.72 0.14L50.72 0.14Q47.58 0.05 47.44-2.86L47.44-2.86L47.44-8.58L48.61-8.58L48.61-3.19Q48.66-0.84 50.77-0.80L50.77-0.80Q53.06-0.84 53.06-3.19L53.06-3.19ZM66.14-4.27L66.14-4.27Q65.95-7.64 63.14-7.83L63.14-7.83Q60.28-7.69 60.14-4.27L60.14-4.27Q60.28-0.94 63.14-0.80L63.14-0.80Q65.95-0.98 66.14-4.27ZM67.31-4.27L67.31-4.27Q67.03 0 63.14 0.14L63.14 0.14Q59.20 0 58.92-4.27L58.92-4.27Q59.16-8.72 63.14-8.81L63.14-8.81Q67.03-8.67 67.31-4.27ZM72.80-3.70L69.98-3.70L69.98 0L68.81 0L68.81-8.58L72.80-8.58Q75.66-8.58 75.66-6.28L75.66-6.28Q75.66-4.88 74.44-4.22L74.44-4.22Q75.47-3.94 75.47-2.58L75.47-2.58L75.56-1.03Q75.52-0.38 75.98-0.19L75.98-0.19L75.98 0L74.53 0Q74.39-0.61 74.34-2.16L74.34-2.16Q74.39-3.70 72.80-3.70L72.80-3.70ZM72.89-7.64L69.98-7.64L69.98-4.69L72.70-4.69Q74.44-4.69 74.44-6.19L74.44-6.19Q74.44-7.64 72.89-7.64L72.89-7.64ZM82.97 0L82.13-2.48L78.66-2.48L77.77 0L76.59 0L79.83-8.58L81.14-8.58L84.23 0L82.97 0ZM80.39-7.31L79.03-3.52L81.70-3.52L80.44-7.31L80.39-7.31ZM86.67-8.58L90.98-1.64L90.98-8.58L92.11-8.58L92.11 0L90.80 0L86.44-6.94L86.39-6.94L86.39 0L85.27 0L85.27-8.58L86.67-8.58ZM100.31-3.61L97.69-3.61L97.69-4.59L101.44-4.59L101.44 0L100.69 0L100.41-1.08Q99.42 0.09 97.59 0.14L97.59 0.14Q95.86 0.14 94.92-0.75L94.92-0.75Q93.52-2.06 93.56-4.36L93.56-4.36Q93.89-8.63 97.64-8.81L97.64-8.81Q100.83-8.63 101.30-6L101.30-6L100.17-6Q99.70-7.78 97.59-7.83L97.59-7.83Q94.92-7.64 94.78-4.31L94.78-4.31Q94.78-0.75 97.64-0.75L97.64-0.75Q98.67-0.75 99.42-1.31L99.42-1.31Q100.36-2.06 100.31-3.61L100.31-3.61ZM104.53-1.03L109.69-1.03L109.69 0L103.36 0L103.36-8.58L109.59-8.58L109.59-7.59L104.53-7.59L104.53-4.92L109.22-4.92L109.22-3.89L104.53-3.89L104.53-1.03ZM121.45-8.58L118.22-3.47L118.22 0L117.05 0L117.05-3.47L113.81-8.58L115.17-8.58L117.61-4.45L120.09-8.58L121.45-8.58ZM122.67-8.58L123.84-8.58L123.84 0L122.67 0L122.67-8.58Z" transform="translate(-0.5609879032258065, 8.8125)"></path></g></g></g></g></g><defs v-gra="od"></defs></svg>